<svg id="Layer_1" data-name="Layer 1" xmlns="http://www.w3.org/2000/svg" viewBox="0 0 1500 1500"><defs><style>.cls-1,.cls-4{fill:#f30000;}.cls-1,.cls-2{stroke:#fff;stroke-miterlimit:10;}.cls-1{stroke-width:71.8659px;}.cls-2,.cls-3{fill:#fff;}.cls-2{stroke-width:59.82083px;}</style></defs><circle class="cls-1" cx="750" cy="750" r="556.5"/><circle class="cls-2" cx="929.86516" cy="872.54056" r="111.48427"/><path class="cls-3" d="M981.9772,514.13245H519.345a35.45219,35.45219,0,0,0-35.41693,35.41693v288.4955a35.45222,35.45222,0,0,0,35.41693,35.417H763.76278c-.11055-2.4324-.16578-4.90168-.16578-7.37086a159.96168,159.96168,0,0,1,6.1915-44.22517H535.5241V565.72848h430.274v145.04a160.0652,160.0652,0,0,1,51.596,24.32386v-185.543A35.4522,35.4522,0,0,0,981.9772,514.13245Z"/><path class="cls-3" d="M822.06632,998.76656H609.31921a6.94664,6.94664,0,0,1-6.91071-6.27825c-1.2976-13.13194,3.78-41.774,75.13877-35.34236a31.23405,31.23405,0,0,0,27.2443-11.19857c5.59853-6.97949,10.39727-17.66468,10.39727-33.78844v-38.697s50.73755-69.99968,48.57394,0C761.25672,954.54139,822.06632,998.76656,822.06632,998.76656Z"/><path class="cls-4" d="M994.88244,794.89484,978.87672,778.889a4.94363,4.94363,0,0,0-6.99215.00079l-37.1915,37.20836-19.50138,19.50137a4.94363,4.94363,0,0,0,0,6.99135l19.50138,19.50138,37.19151,37.19151a4.94365,4.94365,0,0,0,6.99135,0l16.0057-16.00571a4.94362,4.94362,0,0,0,0-6.99134L961.1851,842.59012a4.94363,4.94363,0,0,1-.00078-6.99055l33.6989-33.71418A4.94363,4.94363,0,0,0,994.88244,794.89484Z"/><path class="cls-4" d="M858.06751,944.08759l16.00572,16.0058a4.94363,4.94363,0,0,0,6.99215-.00078l37.1915-37.20837,19.50138-19.50137a4.94365,4.94365,0,0,0,0-6.99135l-19.50138-19.50138-37.19151-37.1915a4.94363,4.94363,0,0,0-6.99135,0l-16.0057,16.0057a4.94364,4.94364,0,0,0,0,6.99135l33.69653,33.69662a4.94362,4.94362,0,0,1,.00079,6.99055l-33.6989,33.71419A4.94362,4.94362,0,0,0,858.06751,944.08759Z"/></svg>